# xmcd CD database file
#
# Track frame offsets:
#	150
#	16189
#	55669
#	78838
#	134590
#	166287
#	216691
#
# Disc length: 3354 seconds
#
# Revision: 0
# Processed by: cddbd v1.5.2PL0 Copyright (c) Steve Scherf et al.
# Submitted via: CDex 1.51
#
DISCID=5a0d1807
DTITLE=Günter Lenz - Strict Minimum
DYEAR=2004
DGENRE=Jazz
TTITLE0=La vielle prune
TTITLE1=Holzbein
TTITLE2=Cotton Worldwide
TTITLE3=B-A-C-H
TTITLE4=Turbo Bop
TTITLE5=Perpetual Questions
TTITLE6=Strict Minimum
EXTD=YEAR: 2004
EXTT0=
EXTT1=
EXTT2=
EXTT3=
EXTT4=
EXTT5=
EXTT6=
PLAYORDER=
